<?xml version="1.0" encoding="UTF-8"?>
<svg version="1.1" xmlns="http://www.w3.org/2000/svg" width="189" height="189">
<path d="M0 0 C62.37 0 124.74 0 189 0 C189 62.37 189 124.74 189 189 C126.63 189 64.26 189 0 189 C0 126.63 0 64.26 0 0 Z " fill="#00AC43" transform="translate(0,0)"/>
<path d="M0 0 C3.10801512 1.56323016 5.92463619 3.40427421 8.83203125 5.31640625 C14.14420322 8.80113747 19.67598874 11.90685938 25.1875 15.0625 C27.46234166 16.36961403 29.7370794 17.67690895 32.01171875 18.984375 C32.58711395 19.31471237 33.16250916 19.64504974 33.75534058 19.98539734 C37.78577303 22.29960144 41.81025047 24.62390387 45.83203125 26.953125 C48.05463486 28.23967428 50.27729039 29.52613385 52.5 30.8125 C53.58120117 31.43850098 54.66240234 32.06450195 55.77636719 32.70947266 C61.3677835 35.93739234 66.98308293 39.1072291 72.65405273 42.19311523 C93.50084238 53.55375747 93.50084238 53.55375747 97 62 C97.74392331 67.76540563 97.0507167 71.268328 93.64453125 76.01318359 C88.18009043 82.61496795 79.88899354 86.4685393 72.5 90.5 C70.25813017 91.73910601 68.01726894 92.98003836 65.77734375 94.22265625 C64.64538574 94.85059082 63.51342773 95.47852539 62.34716797 96.12548828 C57.21506141 98.99961769 52.13625216 101.96189061 47.0625 104.9375 C46.09151367 105.50597656 45.12052734 106.07445312 44.12011719 106.66015625 C42.12372462 107.82903198 40.1274698 108.99814299 38.13134766 110.16748047 C32.51093688 113.45664337 26.88315978 116.73274309 21.25 120 C20.20336182 120.61093506 19.15672363 121.22187012 18.07836914 121.85131836 C-4.26088714 134.7883209 -4.26088714 134.7883209 -12 133 C-17.50506663 130.24746668 -22.02754875 125.91735374 -24 120 C-24.62855875 114.65725063 -23.74425042 111.38605763 -20.71411133 107.08691406 C-15.26073369 100.44747922 -7.43596177 96.34839781 0.0625 92.4375 C9.43684716 87.44133956 18.63825247 82.1984289 27.79125977 76.80834961 C33.48461441 73.45722558 39.20587416 70.17406397 45 67 C41.76733025 64.3091852 38.57222803 62.06115192 34.88671875 60.0390625 C33.89744385 59.49185547 32.90816895 58.94464844 31.88891602 58.38085938 C30.83244873 57.80142578 29.77598145 57.22199219 28.6875 56.625 C19.7561562 51.67691616 10.87635439 46.65468301 2.0625 41.5 C1.09981201 40.93748535 0.13712402 40.3749707 -0.85473633 39.79541016 C-2.68431131 38.72343473 -4.51203104 37.64828494 -6.33764648 36.56958008 C-8.15996435 35.49523972 -9.98791275 34.43040883 -11.82055664 33.3737793 C-12.71508545 32.85211182 -13.60961426 32.33044434 -14.53125 31.79296875 C-15.32982422 31.33172607 -16.12839844 30.8704834 -16.95117188 30.39526367 C-20.86678285 27.7287102 -22.51202821 24.46391537 -24 20 C-24.5821247 14.0623281 -23.45515921 9.79102019 -20 5 C-13.85009947 -0.6607039 -8.11175246 -2.05541695 0 0 Z " fill="#FBFDFC" transform="translate(62,27)"/>
<path d="M0 0 C0.33 0 0.66 0 1 0 C0.80679168 5.50643718 0.14479978 9.10874593 -3.6953125 13.16015625 C-8.64106356 17.10837447 -14.36517902 19.88603031 -19.92578125 22.86474609 C-22.99029013 24.54200201 -25.96074842 26.3604657 -28.9375 28.1875 C-35.65503991 32.2752804 -42.5055611 36.11175568 -49.375 39.9375 C-56.66379582 43.9982223 -63.93727868 48.07495021 -71.125 52.3125 C-71.79595703 52.70622803 -72.46691406 53.09995605 -73.15820312 53.50561523 C-76.47220062 55.46177164 -79.74561719 57.46442217 -82.984375 59.54296875 C-96.85042836 68.36870137 -96.85042836 68.36870137 -105 68 C-109.87954083 66.87973562 -113.64281247 65.01973125 -116.5625 60.875 C-118 58 -118 58 -118 56 C-115.46265664 57.17108155 -113.52635395 58.37451083 -111.3125 60.125 C-106.86615095 62.64180135 -103.99510366 63.04652246 -99 62 C-87.95437331 57.80296489 -77.76927262 50.85880577 -67.62890625 44.88671875 C-61.31408734 41.17261934 -54.96389956 37.52357092 -48.60003662 33.8944397 C-46.81894821 32.87867744 -45.03856297 31.86169191 -43.25830078 30.84448242 C-37.79437373 27.72416732 -32.32408607 24.61574673 -26.83984375 21.53125 C-25.89069092 20.99516113 -24.94153809 20.45907227 -23.96362305 19.90673828 C-22.22687215 18.92640764 -20.48766889 17.95040111 -18.74536133 16.97998047 C-10.73468363 12.45014779 -4.06648667 8.47184724 0 0 Z " fill="#11A04C" transform="translate(158,97)"/>
<path d="M0 0 C0.89332031 0.83789062 1.78664062 1.67578125 2.70703125 2.5390625 C7.87193203 6.95578276 13.77479461 10.0812709 19.6875 13.375 C20.91599837 14.06719855 22.14401741 14.76024842 23.37158203 15.45410156 C25.93413041 16.90152664 28.49871155 18.34524536 31.06494141 19.78613281 C36.9043498 23.06761283 42.72397466 26.38374805 48.54116821 29.70440674 C50.33818288 30.72900803 52.13708454 31.75022909 53.9362793 32.77099609 C55.0375415 33.39828613 56.13880371 34.02557617 57.2734375 34.671875 C58.23685059 35.2194043 59.20026367 35.76693359 60.19287109 36.33105469 C63.20698217 38.1230588 66.09844187 40.03202397 69 42 C68.01 42.99 67.02 43.98 66 45 C65.67 44.34 65.34 43.68 65 43 C64.20980469 42.75636719 63.41960937 42.51273438 62.60546875 42.26171875 C57.43601589 40.45269028 52.99883028 37.61994376 48.3125 34.8125 C41.45178176 30.74748302 34.57687009 26.72938072 27.59375 22.87890625 C26.67882027 22.37424583 26.67882027 22.37424583 25.7454071 21.85939026 C22.77542936 20.22405892 19.80135985 18.5967718 16.82348633 16.97583008 C15.74349365 16.38310303 14.66350098 15.79037598 13.55078125 15.1796875 C12.59856689 14.66132324 11.64635254 14.14295898 10.6652832 13.60888672 C5.41596343 10.44015746 2.36809835 7.73329074 0 2 C0 1.34 0 0.68 0 0 Z " fill="#12A04D" transform="translate(39,51)"/>
<path d="M0 0 C0.66 0.33 1.32 0.66 2 1 C0.54782324 2.50596108 -0.91192861 4.00462104 -2.375 5.5 C-3.18710937 6.3353125 -3.99921875 7.170625 -4.8359375 8.03125 C-7 10 -7 10 -9 10 C-7.61811547 6.78956118 -6.07578097 4.95063635 -3.375 2.75 C-2.74335937 2.22921875 -2.11171875 1.7084375 -1.4609375 1.171875 C-0.73777344 0.59179688 -0.73777344 0.59179688 0 0 Z " fill="#CDEDD7" transform="translate(50,126)"/>
<path d="M0 0 C0.33 0 0.66 0 1 0 C0.63076923 6.4 0.63076923 6.4 -2.5625 9.4375 C-3.7690625 10.2109375 -3.7690625 10.2109375 -5 11 C-5.66 10.67 -6.32 10.34 -7 10 C-6.21625 9.0925 -5.4325 8.185 -4.625 7.25 C-2.69947504 4.94809764 -1.17794259 2.78422793 0 0 Z " fill="#31AF5E" transform="translate(158,97)"/>
<path d="M0 0 C0.66 0.33 1.32 0.66 2 1 C1.0479279 2.00596297 0.08812654 3.00461563 -0.875 4 C-1.40867187 4.556875 -1.94234375 5.11375 -2.4921875 5.6875 C-4 7 -4 7 -6 7 C-4.60667426 3.63279613 -3.0210714 2.0140476 0 0 Z " fill="#C7EBD2" transform="translate(47,28)"/>
</svg>
